HIERARCHY
ROOT hip
{
  OFFSET 0 0 0
  CHANNELS 6 Xposition Yposition Zposition Zrotation Yrotation Xrotation
  JOINT abdomen
  {
    OFFSET 0 20.6881 -0.73152
    CHANNELS 3 Zrotation Xrotation Yrotation
    JOINT chest
    {
      OFFSET 0 11.7043 -0.48768
      CHANNELS 3 Zrotation Xrotation Yrotation
      JOINT neck
      {
        OFFSET 0 22.1894 -2.19456
        CHANNELS 3 Zrotation Xrotation Yrotation
        JOINT head
        {
          OFFSET -0.24384 7.07133 1.2192
          CHANNELS 3 Zrotation Xrotation Yrotation
          JOINT leftEye
          {
            OFFSET 4.14528 8.04674 8.04672
            CHANNELS 3 Zrotation Xrotation Yrotation
            End Site
            {
              OFFSET 1 0 0
            }
          }
          JOINT rightEye
          {
            OFFSET -3.6576 8.04674 8.04672
            CHANNELS 3 Zrotation Xrotation Yrotation
            End Site
            {
              OFFSET 1 0 0
            }
          }
        }
      }
      JOINT rCollar
      {
        OFFSET -2.68224 19.2634 -4.8768
        CHANNELS 3 Zrotation Xrotation Yrotation
        JOINT rShldr
        {
          OFFSET -8.77824 -1.95073 1.46304
          CHANNELS 3 Zrotation Xrotation Yrotation
          JOINT rForeArm
          {
            OFFSET -28.1742 -1.7115 0.48768
            CHANNELS 3 Zrotation Xrotation Yrotation
            JOINT rHand
            {
              OFFSET -22.5879 0.773209 7.07136
              CHANNELS 3 Zrotation Xrotation Yrotation
              JOINT rThumb1
              {
                OFFSET -1.2192 -0.487915 3.41376
                CHANNELS 3 Zrotation Xrotation Yrotation
                JOINT rThumb2
                {
                  OFFSET -3.37035 -0.52449 3.41376
                  CHANNELS 3 Zrotation Xrotation Yrotation
                  End Site
                  {
                    OFFSET -1.78271 -1.18214 1.43049
                  }
                }
              }
              JOINT rIndex1
              {
                OFFSET -7.75947 0.938293 5.60832
                CHANNELS 3 Zrotation Xrotation Yrotation
                JOINT rIndex2
                {
                  OFFSET -2.54057 -0.884171 1.56538
                  CHANNELS 3 Zrotation Xrotation Yrotation
                  End Site
                  {
                    OFFSET -1.62519 -0.234802 1.16502
                  }
                }
              }
              JOINT rMid1
              {
                OFFSET -8.24714 1.18213 3.41376
                CHANNELS 3 Zrotation Xrotation Yrotation
                JOINT rMid2
                {
                  OFFSET -3.10165 -0.590103 1.0647
                  CHANNELS 3 Zrotation Xrotation Yrotation
                  End Site
                  {
                    OFFSET -2.48547 -0.328903 0.83742
                  }
                }
              }
              JOINT rRing1
              {
                OFFSET -8.82822 0.546677 1.51678
                CHANNELS 3 Zrotation Xrotation Yrotation
                JOINT rRing2
                {
                  OFFSET -2.60934 -0.819778 -0.0198488
                  CHANNELS 3 Zrotation Xrotation Yrotation
                  End Site
                  {
                    OFFSET -2.33842 -0.294052 0.168128
                  }
                }
              }
              JOINT rPinky1
              {
                OFFSET -8.27202 -0.0477905 -0.4584
                CHANNELS 3 Zrotation Xrotation Yrotation
                JOINT rPinky2
                {
                  OFFSET -1.82734 -0.647385 -0.700984
                  CHANNELS 3 Zrotation Xrotation Yrotation
                  End Site
                  {
                    OFFSET -1.69225 -0.51767 -0.607171
                  }
                }
              }
            }
          }
        }
      }
      JOINT lCollar
      {
        OFFSET 2.68224 19.2634 -4.8768
        CHANNELS 3 Zrotation Xrotation Yrotation
        JOINT lShldr
        {
          OFFSET 8.77824 -1.95073 1.46304
          CHANNELS 3 Zrotation Xrotation Yrotation
          JOINT lForeArm
          {
            OFFSET 28.1742 -1.7115 0.48768
            CHANNELS 3 Zrotation Xrotation Yrotation
            JOINT lHand
            {
              OFFSET 22.5879 0.773209 7.07136
              CHANNELS 3 Zrotation Xrotation Yrotation
              JOINT lThumb1
              {
                OFFSET 1.2192 -0.487915 3.41376
                CHANNELS 3 Zrotation Xrotation Yrotation
                JOINT lThumb2
                {
                  OFFSET 3.37035 -0.52449 3.41376
                  CHANNELS 3 Zrotation Xrotation Yrotation
                  End Site
                  {
                    OFFSET 1.78271 -1.18214 1.43049
                  }
                }
              }
              JOINT lIndex1
              {
                OFFSET 7.75947 0.938293 5.60832
                CHANNELS 3 Zrotation Xrotation Yrotation
                JOINT lIndex2
                {
                  OFFSET 2.54057 -0.884171 1.56538
                  CHANNELS 3 Zrotation Xrotation Yrotation
                  End Site
                  {
                    OFFSET 1.62519 -0.234802 1.16502
                  }
                }
              }
              JOINT lMid1
              {
                OFFSET 8.24714 1.18213 3.41376
                CHANNELS 3 Zrotation Xrotation Yrotation
                JOINT lMid2
                {
                  OFFSET 3.10165 -0.590103 1.0647
                  CHANNELS 3 Zrotation Xrotation Yrotation
                  End Site
                  {
                    OFFSET 2.48547 -0.328903 0.83742
                  }
                }
              }
              JOINT lRing1
              {
                OFFSET 8.82822 0.546677 1.51678
                CHANNELS 3 Zrotation Xrotation Yrotation
                JOINT lRing2
                {
                  OFFSET 2.60934 -0.819778 -0.0198488
                  CHANNELS 3 Zrotation Xrotation Yrotation
                  End Site
                  {
                    OFFSET 2.33842 -0.294052 0.168128
                  }
                }
              }
              JOINT lPinky1
              {
                OFFSET 8.27202 -0.0477905 -0.4584
                CHANNELS 3 Zrotation Xrotation Yrotation
                JOINT lPinky2
                {
                  OFFSET 1.82734 -0.647385 -0.700984
                  CHANNELS 3 Zrotation Xrotation Yrotation
                  End Site
                  {
                    OFFSET 1.69225 -0.51767 -0.607171
                  }
                }
              }
            }
          }
        }
      }
    }
  }
  JOINT rButtock
  {
    OFFSET -8.77824 4.35084 1.2192
    CHANNELS 3 Zrotation Xrotation Yrotation
    JOINT rThigh
    {
      OFFSET 0 -1.70687 -2.19456
      CHANNELS 3 Zrotation Xrotation Yrotation
      JOINT rShin
      {
        OFFSET 0 -36.8199 0.73152
        CHANNELS 3 Zrotation Xrotation Yrotation
        JOINT rFoot
        {
          OFFSET 0.73152 -45.1104 -5.12064
          CHANNELS 3 Zrotation Xrotation Yrotation
          End Site
          {
            OFFSET -1.1221 -3.69964 12.103
          }
        }
      }
    }
  }
  JOINT lButtock
  {
    OFFSET 8.77824 4.35084 1.2192
    CHANNELS 3 Zrotation Xrotation Yrotation
    JOINT lThigh
    {
      OFFSET 0 -1.70687 -2.19456
      CHANNELS 3 Zrotation Xrotation Yrotation
      JOINT lShin
      {
        OFFSET 0 -36.8199 0.73152
        CHANNELS 3 Zrotation Xrotation Yrotation
        JOINT lFoot
        {
          OFFSET -0.73152 -45.1104 -5.12064
          CHANNELS 3 Zrotation Xrotation Yrotation
          End Site
          {
            OFFSET 1.1221 -3.69964 12.103
          }
        }
      }
    }
  }
}
MOTION
Frames:	4
Frame Time:	0.03333
-0.5032000131905079 61.0418975353241 -1.42000000923872 -17.196000150673214 -23.829300580123885 20.288299995504786 5.226129915605835 10.347400205752695 11.343600371671979 -1.2276300268877656 -9.511659966457227 3.126500096109708 -3.9397098892108304 14.268300180876134 0.9502149568368219 11.49219967480207 -29.780499045469355 5.088390186369242 -0.0 0.0 0.0 -0.0 0.0 0.0 -1.4267900551192807e-13 -5.883939774792391e-13 1.131080026782697e-13 53.524599845886506 55.58300029567491 18.564500267871555 -26.124300490308823 -23.757899490087866 57.287501323808264 -0.20657200113402763 12.840000049947038 1.835689965625678 2.3216900199304992e-09 2.632910078497051e-09 -1.418819998963423e-09 3.995949907026302e-09 4.61249009522529e-09 -2.4679199971041365e-09 2.3216900199304992e-09 2.6328999404790038e-09 -1.418819998963423e-09 7.730910121524428 5.474879855648998 0.41731399283890674 2.3216900199304992e-09 2.632910078497051e-09 -1.4188099603377097e-09 2.90554006136521 0.9651829962377875 0.10290200252939893 2.32168008069712e-09 2.6328999404790038e-09 -1.418819998963423e-09 10.278599710243157 0.7318009818271524 0.025912300303053633 2.32168008069712e-09 2.632910078497051e-09 -1.4188099603377097e-09 2.221669932038622 -0.7334870246959406 -0.20891999872313852 -1.4278499811788994e-13 -5.884119826334569e-13 1.1271100358718934e-13 -58.97190110521428 26.762299922943253 -17.190699923877286 20.45130075249985 -13.590000070817691 -39.78680131161891 0.05869699821075658 -6.896889809239334 0.9740499691626392 -2.668140088780284e-09 -3.3357200294453904e-09 1.2662199671168174e-09 -4.623709899433488e-09 -5.796880155143411e-09 2.1824600460414283e-09 -2.668140088780284e-09 -3.335710090212011e-09 1.2662300057425309e-09 -7.730910121524428 5.474879855648998 -0.41731399283890674 -2.668140088780284e-09 -3.3357200294453904e-09 1.2662199671168174e-09 -2.90554006136521 0.9651829962377875 -0.10290200252939893 -2.668140088780284e-09 -3.3357200294453904e-09 1.2662199671168174e-09 -10.278599710243157 0.7318009818271524 -0.025912300303053633 -2.668140088780284e-09 -3.3357200294453904e-09 1.2662100278834378e-09 -2.221669932038622 -0.7334870246959406 0.20891999872313852 -2.0321699793705798e-16 0.0 -3.882510030490358e-19 -4.19952003995436 3.222259988603521 -4.311699920656296 0.002882680005182559 30.962500847380497 1.7806400282975503 -4.905700128431149 -8.4371397288727 -28.37789920883973 2.0321699793705798e-16 0.0 3.882510030490358e-19 72.77580221026926 -62.62019883905241 49.82369941015553 2.692550003608471 73.92819855722298 -3.3735100454618108 1.4040700348484736 -4.278229859289118 8.855580169316129
-1.0718000121414661 60.86620092391968 -2.6200000196695328 -16.49790017598455 -23.824599702427626 18.929500454475157 5.597880036656703 11.094799632096864 10.819000008506334 -1.3069700378951625 -9.776469815673206 2.9979000137562384 -3.844079983754659 14.458400567176867 1.1348500178627818 11.220100306194395 -28.671699795987827 5.244159907467376 -0.0 0.0 0.0 -0.0 0.0 0.0 -4.86400020227553e-13 -2.8008301041785374e-13 -5.602529891277787e-13 55.393001508438076 56.387900523320475 16.366200468408366 -26.38660024500482 -24.469000729861648 58.426298764124496 -0.20245499789009666 12.702699587251443 1.815460012521158 -1.0516099527460569e-09 -1.1138199921596759e-08 3.462620185542433e-09 -1.7884600883497613e-09 -1.9351599924775846e-08 6.004919839288605e-09 -1.0516099527460569e-09 -1.1138199921596759e-08 3.462620185542433e-09 7.730910121524428 5.474879855648998 0.41731399283890674 -1.0516099527460569e-09 -1.1138199921596759e-08 3.462620185542433e-09 2.90554006136521 0.9651829962377875 0.10290200252939893 -1.0516000135126773e-09 -1.1138199921596759e-08 3.462620185542433e-09 10.278599710243157 0.7318009818271524 0.025912300303053633 -1.0516199913717704e-09 -1.1138199921596759e-08 3.462620185542433e-09 2.221669932038622 -0.7334870246959406 -0.20891999872313852 -4.865119821973122e-13 -2.800919887292562e-13 -5.605569898987243e-13 -60.677699869289945 26.15910030413004 -15.293199947914164 20.50350047323167 -13.65229993378467 -39.93660102049562 0.1539769965442039 -11.251500393356235 1.6003400029604329 5.250499822662827e-09 9.996270266676174e-09 -1.7234300697632229e-09 9.098119791287055e-09 1.73846001945208e-08 -2.923119989191857e-09 5.250499822662827e-09 9.996270266676174e-09 -1.7234199317451759e-09 -7.730910121524428 5.474879855648998 -0.41731399283890674 5.250499822662827e-09 9.996270266676174e-09 -1.7234300697632229e-09 -2.90554006136521 0.9651829962377875 -0.10290200252939893 5.250499822662827e-09 9.996270266676174e-09 -1.7234300697632229e-09 -10.278599710243157 0.7318009818271524 -0.025912300303053633 5.2505101594655414e-09 9.996270266676174e-09 -1.7234300697632229e-09 -2.221669932038622 -0.7334870246959406 0.20891999872313852 -2.0321699793705798e-16 0.0 -3.882510030490358e-19 -3.7117198822630972 3.4931499868412814 -5.761099786592029 0.0141446997836549 30.847900518391437 1.8281799591898373 -7.835380426200711 -12.175099917266515 -31.24470035822333 2.0321699793705798e-16 0.0 3.882510030490358e-19 71.99539845608194 -63.27140273489976 50.109498430690955 3.1403600440395443 75.69469721245255 -3.8194900220821437 1.2724100277468384 -3.1916500689512857 8.477699953485173
-1.7963000107556581 60.789501667022705 -3.842000011354685 -16.01089915042618 -23.907400378188395 17.392699353485828 5.787049809683023 12.061299574183995 10.459800360055363 -1.3663200061926364 -10.095199739518206 2.9082100250004506 -3.8407801486118966 14.658999808005555 1.2571300407998738 10.85609988853055 -27.54690082837554 5.256599816380085 -0.0 0.0 0.0 -0.0 0.0 0.0 -7.303270066421563e-13 1.0972900304910562e-13 -1.0543000070367411e-12 58.37749706250475 56.550899572768245 12.685299680340835 -26.557300332741782 -24.95770076497606 59.21489874531583 -0.18486599345705768 12.160199859592133 1.735409982005197 -4.233129833163064e-09 -2.263189998160474e-08 7.69943985970533e-09 -7.246389723797611e-09 -3.93611007659671e-08 1.3359299731324617e-08 -4.233140169965779e-09 -2.263189998160474e-08 7.69941998123857e-09 7.730910121524428 5.474879855648998 0.41731399283890674 -4.233129833163064e-09 -2.263189998160474e-08 7.699430318041285e-09 2.90554006136521 0.9651829962377875 0.10290200252939893 -4.2331198939296845e-09 -2.263189998160474e-08 7.699430318041285e-09 10.278599710243157 0.7318009818271524 0.025912300303053633 -4.233140169965779e-09 -2.263189998160474e-08 7.699430318041285e-09 2.221669932038622 -0.7334870246959406 -0.20891999872313852 -7.304399877715881e-13 1.0972900304910562e-13 -1.0544999564582443e-12 -62.36979727389057 25.64860001273224 -14.053799797539176 20.292399816554088 -13.383999857902813 -39.39460160419302 0.2699539955172039 -14.630900409760123 2.102600098011436 1.1960199966524937e-08 2.0980600518754422e-08 -4.650840030866371e-09 2.0728400025565113e-08 3.649680135870023e-08 -7.928749900852146e-09 1.1960199966524937e-08 2.0980600518754422e-08 -4.650840030866371e-09 -7.730910121524428 5.474879855648998 -0.41731399283890674 1.1960199966524937e-08 2.0980600518754422e-08 -4.650840030866371e-09 -2.90554006136521 0.9651829962377875 -0.10290200252939893 1.1960199966524937e-08 2.0980600518754422e-08 -4.650840030866371e-09 -10.278599710243157 0.7318009818271524 -0.025912300303053633 1.1960199966524937e-08 2.0980600518754422e-08 -4.650840030866371e-09 -2.221669932038622 -0.7334870246959406 0.20891999872313852 -2.0321699793705798e-16 0.0 -3.882510030490358e-19 -3.6166701159995536 3.629989838654725 -6.92591982075918 0.014943199923944966 31.711000787954685 1.8998800834454577 -10.801600101595726 -15.804999682801562 -33.2337982935982 2.0321699793705798e-16 0.0 3.882510030490358e-19 71.46760241815838 -63.702401331905904 51.85430099002198 3.975360061583712 78.0362977957972 -4.615720178350026 1.1378000192539925 -2.1882700935538484 7.744590136658317
-2.4476000107824802 60.55539846420288 -4.7240000218153 -17.061699848570548 -23.403400719333156 16.954300246513974 8.05759977707343 12.209799839571119 10.229500041620874 -1.85065000089871 -9.90448036732394 2.8655399122646767 -3.9126200783020906 14.889699692506492 1.342649985623957 10.276600172363635 -27.085000748016967 5.218889915085621 -0.0 0.0 0.0 -0.0 0.0 0.0 -4.678419961529345e-13 2.0445199614005262e-13 -8.661110087168961e-13 61.85730085970783 55.985998532178584 8.094209591024699 -26.593100769276404 -25.064000706576262 59.40479849480969 -0.16953899559869617 11.63919985989273 1.6589899835896862 -3.982749809959558e-09 -1.649259932160829e-08 6.373350125187981e-09 -6.824730072318597e-09 -2.8710599942977924e-08 1.1059100321807431e-08 -3.982749809959558e-09 -1.649259932160829e-08 6.373340185954602e-09 7.730910121524428 5.474879855648998 0.41731399283890674 -3.982749809959558e-09 -1.649259932160829e-08 6.3733600644213605e-09 2.90554006136521 0.9651829962377875 0.10290200252939893 -3.982739870726178e-09 -1.649259932160829e-08 6.373350125187981e-09 10.278599710243157 0.7318009818271524 0.025912300303053633 -3.982749809959558e-09 -1.649259932160829e-08 6.3733600644213605e-09 2.221669932038622 -0.7334870246959406 -0.20891999872313852 -4.67921005293276e-13 2.0444799229848127e-13 -8.663280411957705e-13 -64.04550222448316 25.128499890455984 -13.589900179301079 19.731999870627465 -12.686500086087465 -38.00700086298074 0.3533419875053177 -16.478399985904165 2.384550093506151 8.852040275582224e-09 1.5757199419547e-08 -3.7088400432225848e-09 1.5347800011226355e-08 2.741449846584409e-08 -6.33036015783598e-09 8.85202993877951e-09 1.5757199419547e-08 -3.708830103989205e-09 -7.730910121524428 5.474879855648998 -0.41731399283890674 8.852040275582224e-09 1.5757199419547e-08 -3.7088400432225848e-09 -2.90554006136521 0.9651829962377875 -0.10290200252939893 8.85202993877951e-09 1.5757199419547e-08 -3.7088400432225848e-09 -10.278599710243157 0.7318009818271524 -0.025912300303053633 8.852040275582224e-09 1.5757199419547e-08 -3.7088400432225848e-09 -2.221669932038622 -0.7334870246959406 0.20891999872313852 -2.0321699793705798e-16 0.0 -3.882510030490358e-19 -2.4289900790106045 3.51837003346473 -7.536410239624559 0.007956740161188424 33.17969978027711 1.980530103391322 -11.745100235426484 -17.593500084895034 -32.90380111894362 2.0321699793705798e-16 0.0 3.882510030490358e-19 75.53120297428995 -64.0062013159989 57.48449763984978 5.817819811893931 81.14520183050107 -6.360170129165146 0.6857919738043002 -1.9289999546415724 4.158430048794387
